<?xml version="1.0" encoding="UTF-8" standalone="no"?>
<!-- Created with Inkscape (http://www.inkscape.org/) -->

<svg
   xmlns:dc="http://purl.org/dc/elements/1.1/"
   xmlns:cc="http://creativecommons.org/ns#"
   xmlns:rdf="http://www.w3.org/1999/02/22-rdf-syntax-ns#"
   xmlns:svg="http://www.w3.org/2000/svg"
   xmlns="http://www.w3.org/2000/svg"
   xmlns:sodipodi="http://sodipodi.sourceforge.net/DTD/sodipodi-0.dtd"
   xmlns:inkscape="http://www.inkscape.org/namespaces/inkscape"
   width="100"
   height="100"
   viewBox="0 0 26.458333 26.458334"
   version="1.1"
   id="svg8"
   inkscape:export-filename="/Users/Kennedy/Documents/school/junior/S1/comp20/kbaile03.github.io/projects/fibo_dijk/images/graph_icon.png"
   inkscape:export-xdpi="202.77631"
   inkscape:export-ydpi="202.77631"
   inkscape:version="0.92.2 5c3e80d, 2017-08-06"
   sodipodi:docname="graph_icon.svg">
  <defs
     id="defs2" />
  <sodipodi:namedview
     id="base"
     pagecolor="#ffffff"
     bordercolor="#666666"
     borderopacity="1.0"
     inkscape:pageopacity="0.0"
     inkscape:pageshadow="2"
     inkscape:zoom="4.27"
     inkscape:cx="-33.676815"
     inkscape:cy="24.285714"
     inkscape:document-units="px"
     inkscape:current-layer="layer1"
     showgrid="false"
     units="px"
     inkscape:window-width="1680"
     inkscape:window-height="1006"
     inkscape:window-x="4"
     inkscape:window-y="0"
     inkscape:window-maximized="0" />
  <metadata
     id="metadata5">
    <rdf:RDF>
      <cc:Work
         rdf:about="">
        <dc:format>image/svg+xml</dc:format>
        <dc:type
           rdf:resource="http://purl.org/dc/dcmitype/StillImage" />
        <dc:title></dc:title>
      </cc:Work>
    </rdf:RDF>
  </metadata>
  <g
     inkscape:label="Layer 1"
     inkscape:groupmode="layer"
     id="layer1"
     transform="translate(0,-270.54165)">
    <path
       style="fill:#000000;stroke-width:0.2921;fill-opacity:1;stroke:none;stroke-opacity:1;opacity:1;stroke-miterlimit:4;stroke-dasharray:none"
       d="m 20.031872,296.75555 c -0.491868,-0.15976 -0.879781,-0.48507 -1.117817,-0.93741 -0.131193,-0.24931 -0.147914,-0.33897 -0.147914,-0.79298 0,-0.45552 0.01649,-0.54324 0.149764,-0.79662 0.08238,-0.1566 0.245199,-0.37736 0.361842,-0.49056 l 0.212072,-0.2058 -0.458693,-1.37495 -0.458695,-1.37494 -0.388352,-0.0275 c -0.213592,-0.0151 -0.427766,-0.0439 -0.47594,-0.064 -0.06834,-0.0285 -0.190719,0.125 -0.556768,0.69837 -0.421381,0.66005 -0.461127,0.74408 -0.390163,0.8249 0.04345,0.0495 0.136326,0.19912 0.206378,0.33249 0.107977,0.20556 0.127349,0.32039 0.127255,0.75436 -1.08e-4,0.4496 -0.01745,0.54467 -0.142662,0.7813 -0.181512,0.34306 -0.483776,0.64532 -0.826826,0.82682 -0.23669,0.12524 -0.331588,0.14256 -0.781303,0.14256 -0.454017,0 -0.543666,-0.0167 -0.792972,-0.14792 -0.356986,-0.18784 -0.621938,-0.45281 -0.809792,-0.80979 -0.131193,-0.2493 -0.147915,-0.33895 -0.147915,-0.79297 0,-0.44971 0.01731,-0.54462 0.142552,-0.7813 0.181511,-0.34305 0.483776,-0.64531 0.826824,-0.82683 0.237408,-0.12561 0.331206,-0.14259 0.789541,-0.1428 l 0.520126,-2.1e-4 0.422827,-0.67118 c 0.232554,-0.36912 0.431171,-0.69119 0.441367,-0.71569 0.0102,-0.0245 -0.04586,-0.12895 -0.124576,-0.23215 -0.438751,-0.57523 -0.5802,-1.39834 -0.35483,-2.06478 0.0638,-0.18869 0.108738,-0.34771 0.09985,-0.35337 -0.0089,-0.006 -0.331496,-0.27561 -0.716905,-0.59989 -0.385407,-0.32428 -0.742999,-0.62283 -0.794648,-0.66344 -0.08188,-0.0644 -0.118176,-0.0554 -0.283407,0.0707 -0.104225,0.0795 -0.316444,0.2025 -0.471601,0.27337 -1.069582,0.48843 -2.292496,0.36542 -3.185027,-0.3204 l -0.262656,-0.20184 -0.2053,0.15295 c -0.334974,0.24955 -2.8757202,2.18593 -2.9235526,2.22814 -0.024202,0.0214 -0.00314,0.17926 0.046724,0.35091 0.064174,0.22077 0.083994,0.44036 0.067718,0.75052 -0.043182,0.82263 -0.5149914,1.5204 -1.269825,1.87797 -0.3367084,0.15952 -0.4044987,0.17207 -0.9289847,0.17207 -0.5244861,0 -0.5922765,-0.0125 -0.9289828,-0.17206 -0.4700985,-0.22268 -0.8585353,-0.61113 -1.0812224,-1.08122 -0.1595014,-0.3367 -0.1720559,-0.4045 -0.1720559,-0.92898 0,-0.5245 0.012562,-0.59228 0.1720559,-0.92898 0.2226871,-0.47011 0.6111239,-0.85854 1.0812224,-1.08123 0.3367063,-0.1595 0.4044967,-0.17205 0.9289828,-0.17205 0.5068583,0 0.5992859,0.0157 0.8876082,0.15069 0.1770107,0.0829 0.3648369,0.18961 0.4173925,0.23717 0.089217,0.0808 0.1537043,0.0421 0.9718997,-0.58176 0.4819921,-0.36754 1.1968077,-0.91071 1.5884846,-1.20706 0.4625006,-0.34995 0.704789,-0.56717 0.6911748,-0.61965 -0.011525,-0.0444 -0.074629,-0.22631 -0.1402373,-0.40413 -0.1519227,-0.4118 -0.2015605,-1.19164 -0.1048559,-1.64733 0.038171,-0.17987 0.162786,-0.51291 0.2769177,-0.7401 l 0.207518,-0.41308 -0.9499236,-0.95103 -0.9499265,-0.95102 -0.3030117,0.14208 c -0.2671335,0.12525 -0.3700023,0.14208 -0.8687831,0.14208 -0.524486,0 -0.5922763,-0.0125 -0.9289847,-0.17206 -0.4700965,-0.22269 -0.8585334,-0.61114 -1.0812234,-1.08122 -0.1559222,-0.32916 -0.1720529,-0.41123 -0.1720529,-0.87511 0,-0.28153 0.018038,-0.57615 0.040084,-0.65467 0.038251,-0.13626 0.00659,-0.16411 -0.6932471,-0.6089 -0.6514416,-0.41404 -0.7431688,-0.45746 -0.8213911,-0.38885 -0.048435,0.0425 -0.1971679,0.13457 -0.3305298,0.20463 -0.2055643,0.10798 -0.3203924,0.12735 -0.7543608,0.12725 -0.449591,-1.1e-4 -0.5446768,-0.0175 -0.7813042,-0.14267 -0.3430487,-0.1815 -0.64531299,-0.48377 -0.82682401,-0.82681 -0.12523774,-0.2367 -0.14255275,-0.33159 -0.14255275,-0.78131 0,-0.45402 0.0167219,-0.54367 0.14791448,-0.79298 0.1878556,-0.35698 0.45280848,-0.62193 0.80979248,-0.80979 0.2493074,-0.13119 0.3389555,-0.14792 0.792974,-0.14792 0.4497135,0 0.544611,0.0173 0.781304,0.14256 0.343046,0.18152 0.6453106,0.48378 0.8268246,0.82682 0.1254737,0.23715 0.1425811,0.33143 0.1428089,0.78696 l 2.035e-4,0.51756 0.6705623,0.4254 c 0.3688079,0.23397 0.6893673,0.43324 0.7123538,0.44283 0.022987,0.01 0.1214926,-0.0433 0.2189013,-0.11765 0.2615797,-0.19951 0.7346844,-0.4059 1.0178991,-0.44403 l 0.248864,-0.0335 0.1141611,-0.65406 c 0.1953309,-1.11909 0.1973593,-1.14982 0.078447,-1.18756 -0.1678178,-0.0532 -0.5552444,-0.4683 -0.7091584,-0.75969 -0.1248914,-0.23644 -0.1423188,-0.33206 -0.1424159,-0.7813 -1.064e-4,-0.43289 0.019444,-0.54932 0.1266122,-0.75436 0.1726056,-0.33026 0.5185291,-0.68032 0.8428744,-0.85294 0.2372913,-0.12629 0.3304489,-0.14338 0.781304,-0.14338 0.4497135,0 0.5446131,0.0173 0.7813042,0.14255 0.3430469,0.18151 0.6453115,0.48377 0.826824,0.82683 0.1252359,0.23668 0.1425508,0.33157 0.1425508,0.7813 0,0.44943 -0.017386,0.54489 -0.1425404,0.78237 -0.2602431,0.49382 -0.6270144,0.76701 -1.3670766,1.01824 -0.030417,0.0103 -0.1109705,0.35502 -0.179019,0.76598 -0.068051,0.41097 -0.1363124,0.80014 -0.1517012,0.86484 -0.022795,0.0958 0.014212,0.13914 0.1999628,0.23391 0.3460623,0.17654 0.7358676,0.59967 0.930007,1.00951 0.1595004,0.3367 0.172056,0.40449 0.172056,0.92898 0,0.49878 -0.016824,0.60166 -0.142076,0.86879 l -0.1420781,0.303 0.9519813,0.95088 0.951977,0.95088 0.375524,-0.19177 c 0.206536,-0.10548 0.50888,-0.22694 0.671877,-0.26989 0.352782,-0.093 1.014648,-0.10248 1.411778,-0.0203 0.442827,0.0916 1.032672,0.39871 1.371116,0.71372 l 0.305667,0.28453 1.648289,-1.00796 c 1.507191,-0.92168 1.645982,-1.01882 1.621346,-1.13486 -0.01483,-0.0699 -0.02674,-0.35726 -0.0265,-0.6388 4.07e-4,-0.43939 0.02051,-0.55481 0.142112,-0.81496 l 0.141671,-0.30309 -0.788711,-0.7848 -0.788706,-0.7848 -0.161651,0.0911 c -0.120386,0.0678 -0.29231,0.091 -0.673535,0.0908 -0.453736,-2e-4 -0.543825,-0.0171 -0.792974,-0.14816 -0.356985,-0.18786 -0.621938,-0.45283 -0.809793,-0.8098 -0.13119,-0.24932 -0.147915,-0.33896 -0.147915,-0.79298 0,-0.45401 0.01673,-0.54367 0.147915,-0.79296 0.187855,-0.357 0.452808,-0.62195 0.809793,-0.8098 0.249307,-0.1312 0.338955,-0.14792 0.792974,-0.14792 0.454015,0 0.543665,0.0167 0.792971,0.14792 0.356984,0.18785 0.621937,0.4528 0.809793,0.8098 0.13111,0.24913 0.147945,0.33923 0.148172,0.79296 2.04e-4,0.38123 -0.02297,0.55315 -0.09079,0.67354 l -0.09105,0.16165 0.784795,0.7887 0.784795,0.78871 0.303087,-0.14211 c 0.270469,-0.12681 0.367445,-0.1421 0.901092,-0.1421 h 0.598008 l 0.318004,-0.59272 c 0.174904,-0.32599 0.326261,-0.62519 0.336353,-0.66487 0.01012,-0.0397 -0.02962,-0.12456 -0.08822,-0.18859 -0.269571,-0.29454 -0.360905,-0.57636 -0.360788,-1.11327 1.07e-4,-0.4539 0.01687,-0.54374 0.148023,-0.79297 0.187854,-0.35699 0.452808,-0.62195 0.809792,-0.80979 0.249308,-0.1312 0.338956,-0.14792 0.792972,-0.14792 0.454019,0 0.543667,0.0167 0.792975,0.14792 0.356984,0.18784 0.621938,0.4528 0.809792,0.80979 0.131191,0.2493 0.147915,0.33895 0.147915,0.79297 0,0.44971 -0.01731,0.54461 -0.142552,0.7813 -0.18284,0.34556 -0.486184,0.64755 -0.826824,0.82316 -0.209271,0.10789 -0.372032,0.14412 -0.729086,0.16231 l -0.459671,0.0234 -0.335103,0.61143 c -0.184306,0.33628 -0.335103,0.62652 -0.335103,0.64496 0,0.0183 0.0842,0.13632 0.187128,0.26192 0.102919,0.1256 0.254465,0.37216 0.336767,0.5479 0.13387,0.28585 0.149642,0.37928 0.149642,0.88645 0,0.53645 -0.0099,0.58699 -0.184258,0.94117 -0.234028,0.47538 -0.580312,0.82166 -1.055685,1.05569 -0.354183,0.17436 -0.404725,0.18426 -0.941187,0.18426 -0.505036,0 -0.601221,-0.0161 -0.88136,-0.14732 -0.172952,-0.0809 -0.407138,-0.22072 -0.520417,-0.31044 l -0.20596,-0.16313 -1.284665,0.78801 c -0.706566,0.43341 -1.448701,0.88806 -1.64919,1.01035 -0.264197,0.16115 -0.354963,0.24475 -0.329785,0.30374 0.275569,0.64564 0.229827,1.66001 -0.108245,2.40036 l -0.123936,0.27141 0.80011,0.67513 0.800108,0.6751 0.387142,-0.19215 c 0.370166,-0.18375 0.412101,-0.19218 0.956329,-0.19218 0.528328,0 0.595262,0.0124 0.932401,0.17206 0.757051,0.35862 1.226626,1.05497 1.270114,1.88351 l 0.0233,0.44397 0.491819,0.18949 c 0.2705,0.10422 0.709627,0.27321 0.975838,0.37554 l 0.484016,0.18605 0.179423,-0.18473 c 0.09868,-0.10161 0.305203,-0.25095 0.458934,-0.33187 0.247554,-0.13029 0.338045,-0.14712 0.791403,-0.14712 0.454016,0 0.543667,0.0167 0.792972,0.14792 0.356986,0.18786 0.621938,0.4528 0.809793,0.80979 0.131193,0.24931 0.147914,0.33896 0.147914,0.79298 0,0.44971 -0.01731,0.54461 -0.142552,0.78129 -0.181511,0.34307 -0.483776,0.64532 -0.826825,0.82682 -0.236692,0.12525 -0.331588,0.14256 -0.781302,0.14256 -0.454018,0 -0.543669,-0.0167 -0.792973,-0.1479 -0.565965,-0.29783 -0.924255,-0.8218 -0.972444,-1.42212 l -0.02675,-0.33333 -0.968227,-0.37482 -0.968225,-0.37482 -0.349165,0.34404 -0.349163,0.34405 0.453252,1.35989 0.453253,1.35989 0.302683,0.0381 c 0.582151,0.0734 1.087801,0.4325 1.371241,0.97396 0.128191,0.24489 0.147273,0.34354 0.148174,0.76604 8.14e-4,0.41199 -0.02021,0.53023 -0.140129,0.78595 -0.292282,0.62327 -0.845578,0.97962 -1.556151,1.00226 -0.222268,0.007 -0.464741,-0.007 -0.538832,-0.0309 z m 1.163147,-0.24458 c 0.582328,-0.26495 0.959242,-0.85063 0.960037,-1.49176 4.09e-4,-0.29332 -0.03039,-0.41883 -0.174181,-0.71093 -0.25814,-0.52434 -0.650179,-0.80274 -1.294994,-0.91956 l -0.357651,-0.0648 -0.467517,-1.37206 c -0.257133,-0.75462 -0.469132,-1.42054 -0.471107,-1.47982 -0.0023,-0.0659 0.07222,-0.1594 0.1914,-0.24058 0.107248,-0.0731 0.268749,-0.2246 0.358889,-0.33679 0.193384,-0.24063 0.281149,-0.25003 0.715814,-0.0766 0.175515,0.0701 0.612769,0.24047 0.971675,0.3788 l 0.652561,0.25149 0.03455,0.33054 c 0.09552,0.91392 0.787501,1.57346 1.650842,1.57346 1.172271,0 1.9828,-1.23734 1.49945,-2.28906 -0.486645,-1.05886 -1.839847,-1.32172 -2.647328,-0.51424 -0.107583,0.10758 -0.237025,0.19561 -0.287646,0.19561 -0.08975,0 -1.811686,-0.64662 -2.02277,-0.75961 -0.0884,-0.0472 -0.1002,-0.0915 -0.07077,-0.2658 0.0451,-0.26695 -0.05646,-0.75984 -0.225479,-1.09436 -0.403516,-0.79861 -1.345602,-1.27931 -2.186062,-1.11546 -0.185222,0.0362 -0.473985,0.13846 -0.641695,0.22744 -0.167709,0.089 -0.344018,0.15351 -0.391799,0.14341 -0.04778,-0.0101 -0.450168,-0.32146 -0.8942,-0.6919 -0.906925,-0.75663 -0.872649,-0.68714 -0.626044,-1.26915 0.260843,-0.61561 0.297617,-1.44099 0.08868,-1.99053 -0.129009,-0.33931 -0.162005,-0.3108 1.621489,-1.4012 0.920986,-0.56308 1.696344,-1.03174 1.723018,-1.04148 0.02668,-0.0101 0.151893,0.0661 0.278267,0.16863 0.512648,0.41571 1.102917,0.58215 1.669343,0.47072 0.895849,-0.17625 1.540874,-0.82049 1.714829,-1.71278 0.113157,-0.58042 -0.08938,-1.26047 -0.516024,-1.73272 -0.102687,-0.11367 -0.186703,-0.23681 -0.186703,-0.27366 0,-0.0368 0.169603,-0.37641 0.376892,-0.7546 l 0.376893,-0.68762 0.417883,0.005 c 0.342635,0.004 0.472083,-0.0202 0.718897,-0.13438 1.313645,-0.60799 1.313645,-2.39613 0,-2.99988 -1.05193,-0.48345 -2.290805,0.32834 -2.288301,1.49945 8.15e-4,0.37876 0.120309,0.71753 0.367368,1.04144 0.07596,0.0996 0.138134,0.20534 0.138134,0.23496 0,0.0473 -0.722714,1.40407 -0.776753,1.4581 -0.01157,0.0116 -0.168855,-0.009 -0.349551,-0.0436 -0.397571,-0.0782 -0.855975,-0.005 -1.264138,0.20178 l -0.265652,0.13462 -0.830235,-0.82664 c -0.915021,-0.91105 -0.86271,-0.80562 -0.690919,-1.39239 0.211254,-0.72159 -0.195246,-1.53575 -0.936979,-1.87664 -1.051699,-0.48335 -2.28905,0.32718 -2.28905,1.49944 0,1.04994 1.043694,1.8726 2.014975,1.58823 0.586777,-0.17178 0.481351,-0.2241 1.392406,0.69093 l 0.826634,0.83023 -0.133326,0.26387 c -0.215735,0.42693 -0.277506,0.8334 -0.197631,1.30036 0.04014,0.23469 0.04806,0.4159 0.01937,0.44356 -0.105535,0.1018 -3.333017,2.04926 -3.396206,2.04926 -0.03714,0 -0.195146,-0.12235 -0.35113,-0.27191 -0.46463,-0.44549 -1.349958,-0.80387 -1.985816,-0.80387 -0.367456,0 -0.948802,0.15993 -1.391807,0.38288 l -0.448854,0.22592 -1.0245289,-1.02454 -1.0245318,-1.02453 0.1334804,-0.26417 c 0.4110396,-0.81346 0.2593283,-1.7456 -0.3897508,-2.39467 -0.1416052,-0.14161 -0.3561733,-0.30782 -0.4768146,-0.36938 -0.1206422,-0.0615 -0.2307119,-0.13043 -0.2446005,-0.15308 -0.042817,-0.0699 0.2989466,-1.9246 0.3623823,-1.96669 0.032826,-0.0217 0.1081748,-0.0402 0.1674452,-0.0409 0.059276,-8.2e-4 0.2314791,-0.0589 0.3826854,-0.12936 0.8156992,-0.37982 1.1855966,-1.34411 0.8204074,-2.13869 -0.603656,-1.31347 -2.3952432,-1.31347 -2.9988989,0 -0.3251196,0.70741 -0.067526,1.58174 0.5918947,2.00904 0.1435285,0.093 0.2609418,0.19532 0.2609216,0.22736 -5.27e-5,0.0958 -0.3195362,1.87761 -0.3403788,1.89845 -0.010568,0.0105 -0.1616158,0.0456 -0.3356536,0.0777 -0.3499148,0.0647 -0.7305151,0.23928 -0.9809297,0.44999 -0.090007,0.0758 -0.1932356,0.1377 -0.2294083,0.1377 -0.036177,0 -0.4149782,-0.22191 -0.8417872,-0.49314 l -0.7760131,-0.49313 0.041319,-0.19388 c 0.2210362,-1.03716 -0.5585856,-2.02025 -1.602112,-2.02025 -1.1722723,0 -1.98280187,1.23734 -1.49944934,2.28904 0.45192274,0.98331 1.57901984,1.2832 2.48121414,0.66016 l 0.2004629,-0.13843 0.7829661,0.49641 c 0.4306311,0.27302 0.7930854,0.51279 0.8054577,0.53282 0.012379,0.0201 -0.014809,0.19344 -0.060399,0.3854 -0.1557066,0.65561 0.063679,1.37688 0.5740402,1.88724 0.6495255,0.64951 1.5814204,0.80133 2.3951134,0.39018 l 0.2641658,-0.13349 1.0245321,1.02454 1.0245272,1.02454 -0.226299,0.44884 c -0.3119558,0.61874 -0.4212339,1.17214 -0.3411008,1.72735 0.033048,0.229 0.1235627,0.57502 0.2011358,0.76891 0.07757,0.19391 0.133122,0.37439 0.12344,0.40105 -0.0097,0.0267 -0.754836,0.61221 -1.6559038,1.30118 l -1.6383059,1.25269 -0.1398339,-0.0874 c -0.8588942,-0.53611 -1.5218923,-0.59071 -2.281797,-0.1875 -0.7716021,0.40942 -1.2279678,1.3318 -1.0660767,2.15468 0.1762465,0.89585 0.8205033,1.54087 1.712787,1.71483 1.0875206,0.21201 2.1759418,-0.57923 2.3892517,-1.73691 0.057595,-0.31259 0.05383,-0.40742 -0.028899,-0.72685 -0.052321,-0.20204 -0.1063538,-0.41585 -0.1200634,-0.47512 -0.020437,-0.0883 0.2714174,-0.33369 1.6183927,-1.36055 0.9038244,-0.68903 1.6669653,-1.25277 1.6958673,-1.25277 0.0289,0 0.156422,0.0867 0.283377,0.19285 0.984932,0.82288 2.647331,0.84723 3.591692,0.0526 0.08999,-0.0758 0.193462,-0.13769 0.229912,-0.13769 0.03645,0 0.416919,0.29704 0.845483,0.66007 0.428564,0.36304 0.818674,0.69076 0.866913,0.72829 0.07635,0.0594 0.07853,0.0908 0.01678,0.24247 -0.03901,0.0958 -0.107704,0.31974 -0.152644,0.49755 -0.138714,0.54885 0.02156,1.19445 0.423311,1.70507 0.08497,0.10799 0.154476,0.22519 0.154476,0.26043 0,0.0353 -0.222206,0.414 -0.493794,0.84169 l -0.493796,0.77758 -0.193214,-0.0412 c -0.507959,-0.10831 -1.092944,0.0419 -1.498136,0.38458 -0.09536,0.0807 -0.251897,0.30614 -0.347863,0.50107 -0.230037,0.46728 -0.241672,0.9187 -0.03525,1.36784 0.603656,1.31347 2.395242,1.31347 2.9989,0 0.242743,-0.52816 0.176272,-1.10549 -0.18803,-1.63302 l -0.138435,-0.20047 0.496416,-0.78296 c 0.273024,-0.43063 0.518772,-0.79678 0.546102,-0.81367 0.02733,-0.017 0.134609,-0.003 0.2384,0.0316 0.103791,0.0342 0.349312,0.0784 0.545604,0.0981 l 0.356898,0.0358 0.481562,1.44635 0.481564,1.44636 -0.25149,0.24096 c -0.962347,0.92209 -0.570286,2.44063 0.723739,2.80322 0.314104,0.0881 0.709405,0.0457 1.059187,-0.11349 z m -1.084992,-0.64262 c -0.223471,-0.10137 -0.443523,-0.37519 -0.486768,-0.60571 -0.07963,-0.42451 0.04863,-0.77142 0.375483,-1.01545 0.212554,-0.1587 0.823601,-0.1587 1.036157,0 0.295667,0.22073 0.370991,0.3787 0.370991,0.77797 0,0.3977 -0.07552,0.55737 -0.366314,0.77449 -0.182542,0.13628 -0.696759,0.17428 -0.929549,0.0688 z m 0.659229,-0.0922 c 0.360608,-0.13625 0.598317,-0.5344 0.531548,-0.89032 -0.04539,-0.24199 -0.30812,-0.53795 -0.547715,-0.61703 -0.536575,-0.17709 -1.124956,0.33768 -1.020767,0.89305 0.0626,0.33373 0.440831,0.66365 0.767519,0.6695 0.06475,9.5e-4 0.18599,-0.0237 0.269415,-0.0552 z m -5.832,-1.63202 c -0.223469,-0.10136 -0.443521,-0.37518 -0.486768,-0.6057 -0.07963,-0.42453 0.04863,-0.77142 0.375485,-1.01544 0.212554,-0.1587 0.823602,-0.1587 1.036155,0 0.295668,0.22074 0.370992,0.3787 0.370992,0.77797 0,0.3977 -0.07552,0.55738 -0.366315,0.77449 -0.182542,0.13628 -0.696759,0.17428 -0.929549,0.0688 z m 0.659231,-0.0922 c 0.36061,-0.13624 0.598317,-0.53439 0.531547,-0.89031 -0.04539,-0.24199 -0.308118,-0.53796 -0.547714,-0.61703 -0.536575,-0.17709 -1.124954,0.33767 -1.020767,0.89305 0.0626,0.33373 0.44083,0.66363 0.767518,0.6695 0.06475,9.4e-4 0.18599,-0.0237 0.269416,-0.0551 z m 7.962051,-2.49413 c -0.223467,-0.10137 -0.443521,-0.37519 -0.486767,-0.60572 -0.07963,-0.42451 0.04864,-0.77141 0.375484,-1.01545 0.212554,-0.15868 0.823604,-0.15868 1.036157,0 0.295667,0.22076 0.370991,0.3787 0.370991,0.77799 0,0.3977 -0.07552,0.55737 -0.366317,0.77448 -0.18254,0.13628 -0.696756,0.17429 -0.929548,0.0688 z m 0.618627,-0.0878 c 0.380655,-0.10917 0.650332,-0.54892 0.567604,-0.92559 -0.0484,-0.22036 -0.315373,-0.51106 -0.5363,-0.58398 -0.5464,-0.18033 -1.146474,0.36018 -1.023167,0.92159 0.04535,0.20642 0.273773,0.47474 0.481004,0.56501 0.200652,0.0874 0.274612,0.0908 0.510859,0.023 z M 4.8638085,290.66594 c -0.2681782,-0.12461 -0.5877537,-0.45317 -0.6978497,-0.71745 -0.1153503,-0.27689 -0.1058011,-0.82415 0.01906,-1.09287 0.1246243,-0.26817 0.4531813,-0.58775 0.7174582,-0.69784 0.1101841,-0.046 0.3473742,-0.0835 0.5270916,-0.0835 0.1797174,0 0.4169085,0.0375 0.5270905,0.0835 0.2642781,0.11009 0.5928342,0.42967 0.7174574,0.69784 0.113823,0.24495 0.1325693,0.69723 0.042433,1.02379 -0.079985,0.28977 -0.5392026,0.74899 -0.8289776,0.82897 -0.3265518,0.0902 -0.7788433,0.0714 -1.023776,-0.0424 z m 0.9271254,-0.0863 c 0.5881394,-0.17465 0.961646,-0.80696 0.8283965,-1.40239 -0.2143241,-0.95769 -1.3571785,-1.29995 -2.0447714,-0.61236 -0.2074076,0.20741 -0.3842887,0.60167 -0.3842887,0.85657 0,0.0485 0.036501,0.21112 0.081119,0.36135 0.1045531,0.35205 0.4327801,0.68855 0.7741882,0.79368 0.3249404,0.10001 0.4177346,0.10042 0.7453604,0.003 z m 12.0047951,-0.77406 c -0.282069,-0.12885 -0.650352,-0.53433 -0.723031,-0.79608 -0.08849,-0.3187 -0.06871,-0.77287 0.04425,-1.01595 0.124623,-0.26818 0.453179,-0.58775 0.717457,-0.69784 0.232075,-0.0966 0.678362,-0.10819 0.977266,-0.0252 0.261751,0.0727 0.667242,0.44096 0.796086,0.72302 0.132606,0.29032 0.131769,0.84432 -0.0016,1.13156 -0.124625,0.26817 -0.45318,0.58774 -0.717458,0.69784 -0.274607,0.11441 -0.823494,0.10568 -1.092862,-0.0174 z m 0.958361,-0.0922 c 0.439564,-0.14979 0.84672,-0.6917 0.84672,-1.12696 0,-0.28042 -0.16851,-0.6679 -0.384289,-0.88368 -0.687595,-0.68761 -1.830449,-0.34534 -2.04477,0.61235 -0.130286,0.58217 0.239885,1.225 0.805743,1.39924 0.329443,0.10145 0.476594,0.10126 0.776596,-9.4e-4 z m -6.66328,-3.77174 c -0.939219,-0.29925 -1.542348,-1.13325 -1.542348,-2.1327 0,-1.22855 0.972005,-2.20056 2.200556,-2.20056 1.325617,0 2.277191,1.01284 2.207052,2.34914 -0.04378,0.83406 -0.503686,1.50974 -1.272716,1.86983 -0.305956,0.14327 -0.432622,0.17074 -0.844863,0.18326 -0.326672,0.0101 -0.5707,-0.0125 -0.747681,-0.069 z m 1.50331,-0.23083 c 0.46471,-0.21745 0.794252,-0.53564 1.018002,-0.98289 0.416619,-0.83277 0.271274,-1.69905 -0.397233,-2.36755 -0.842465,-0.84247 -2.071982,-0.84247 -2.914446,0 -0.842463,0.84245 -0.842463,2.07228 0,2.91428 0.644624,0.64427 1.500967,0.80712 2.293677,0.43616 z m 6.417035,-5.36718 c -0.263957,-0.0942 -0.608509,-0.42143 -0.738883,-0.70198 -0.134475,-0.28937 -0.134475,-0.84217 0,-1.13154 0.124623,-0.26818 0.453182,-0.58776 0.717458,-0.69785 0.233944,-0.0975 0.67846,-0.108 0.985095,-0.0234 0.289775,0.0799 0.748994,0.53919 0.828978,0.82896 0.09014,0.32656 0.07139,0.77885 -0.04243,1.02379 -0.124623,0.26817 -0.453181,0.58775 -0.71746,0.69784 -0.245826,0.10241 -0.751335,0.10443 -1.032755,0.004 z m 0.86702,-0.10956 c 0.365588,-0.10856 0.688271,-0.43125 0.796839,-0.79682 0.100543,-0.33856 0.100543,-0.38418 0,-0.72272 -0.05343,-0.1799 -0.156379,-0.34841 -0.301594,-0.49362 -0.695798,-0.6958 -1.831125,-0.35095 -2.048942,0.62235 -0.0556,0.24844 -0.05181,0.33359 0.02586,0.57996 0.116296,0.36894 0.43885,0.70189 0.782477,0.80771 0.324939,0.1 0.417734,0.1004 0.74536,0.003 z M 6.6419474,279.47973 c -0.2808501,-0.0995 -0.6997618,-0.53793 -0.7758826,-0.8121 -0.075188,-0.27083 -0.074874,-0.63782 8.147e-4,-0.91192 0.079985,-0.28977 0.5392018,-0.74901 0.8289767,-0.82898 0.5617367,-0.15504 1.0285041,-0.0436 1.4085212,0.33646 0.3788977,0.37891 0.4917347,0.84805 0.3375374,1.40342 -0.078336,0.28212 -0.5530296,0.75682 -0.8351643,0.83515 -0.2866895,0.0796 -0.7047531,0.0701 -0.9647758,-0.0221 z m 0.9044799,-0.11194 c 0.439563,-0.14977 0.8467188,-0.6917 0.8467188,-1.12695 0,-0.28043 -0.1685101,-0.6679 -0.3842877,-0.88368 -0.6875959,-0.68761 -1.8304493,-0.34535 -2.0447715,0.61235 -0.1302846,0.58217 0.2398858,1.22501 0.8057442,1.39923 0.3294428,0.10145 0.476594,0.10128 0.7765962,-9.4e-4 z m -5.5410894,-3.32835 c -0.2234704,-0.10136 -0.4435247,-0.37518 -0.4867697,-0.6057 -0.079641,-0.42453 0.048637,-0.77142 0.3754834,-1.01545 0.2125537,-0.1587 0.8236027,-0.1587 1.0361565,0 0.295667,0.22075 0.3709922,0.3787 0.3709922,0.77797 0,0.3977 -0.075521,0.55739 -0.3663158,0.77448 -0.1825415,0.1363 -0.6967575,0.1743 -0.9295466,0.0688 z m 0.6592286,-0.0922 c 0.360609,-0.13624 0.5983183,-0.53439 0.5315483,-0.89031 -0.045398,-0.24199 -0.3081193,-0.53797 -0.5477164,-0.61704 -0.536575,-0.17708 -1.1249533,0.33768 -1.0207647,0.89304 0.062606,0.33373 0.4408282,0.66365 0.7675187,0.66951 0.064752,9.4e-4 0.1859881,-0.0237 0.2694141,-0.0552 z m 13.1348165,-0.33882 c -0.223466,-0.10137 -0.44352,-0.37519 -0.486767,-0.6057 -0.07963,-0.42452 0.04864,-0.77143 0.375485,-1.01547 0.212555,-0.15867 0.823602,-0.15867 1.036156,0 0.295668,0.22077 0.370992,0.37871 0.370992,0.77799 0,0.3977 -0.07552,0.55738 -0.366317,0.77448 -0.182541,0.13629 -0.696757,0.1743 -0.929549,0.0688 z m 0.618628,-0.0878 c 0.380656,-0.10916 0.650331,-0.54892 0.567603,-0.92558 -0.0484,-0.22036 -0.315372,-0.51107 -0.536297,-0.58398 -0.546402,-0.18032 -1.146476,0.36018 -1.023169,0.9216 0.04534,0.20641 0.273773,0.47473 0.481002,0.56499 0.200655,0.0873 0.274614,0.0908 0.510861,0.023 z m 6.2784,-0.34331 c -0.22347,-0.10135 -0.443522,-0.37518 -0.486768,-0.6057 -0.07964,-0.42452 0.04863,-0.77141 0.375484,-1.01545 0.212555,-0.1587 0.823601,-0.1587 1.036157,0 0.295667,0.22076 0.370991,0.37871 0.370991,0.77798 0,0.3977 -0.07552,0.55738 -0.366315,0.77447 -0.182541,0.13629 -0.696759,0.1743 -0.929549,0.0688 z m 0.618627,-0.0878 c 0.380654,-0.10917 0.650329,-0.54893 0.567601,-0.92558 -0.04839,-0.22036 -0.315372,-0.51107 -0.536298,-0.58398 -0.5464,-0.18033 -1.146473,0.36017 -1.023166,0.92158 0.04533,0.20641 0.27377,0.47475 0.481003,0.56501 0.200653,0.0873 0.274612,0.0907 0.51086,0.023 z M 7.7169366,273.45303 c -0.2234695,-0.10137 -0.4435218,-0.37519 -0.4867698,-0.60571 -0.079641,-0.42451 0.048637,-0.77142 0.3754845,-1.01546 0.2125558,-0.15868 0.8236027,-0.15868 1.0361584,0 0.295667,0.22075 0.3709892,0.37871 0.3709892,0.77797 0,0.39771 -0.075521,0.55738 -0.3663148,0.7745 -0.1825424,0.13628 -0.6967585,0.17429 -0.9295475,0.0687 z m 0.6592316,-0.0922 c 0.3606068,-0.13625 0.5983162,-0.5344 0.5315463,-0.8903 -0.045398,-0.242 -0.3081193,-0.53798 -0.5477166,-0.61704 -0.5365749,-0.1771 -1.1249532,0.33767 -1.0207646,0.89304 0.062606,0.33373 0.4408273,0.66365 0.7675188,0.6695 0.064752,9.5e-4 0.185987,-0.0237 0.2694161,-0.0552 z"
       id="path880"
       inkscape:connector-curvature="0" />
    <path
       style="opacity:1;fill:#000000;fill-opacity:1;stroke:#000000;stroke-width:0.85900002;stroke-linejoin:round;stroke-miterlimit:4;stroke-dasharray:none;stroke-opacity:1"
       d="m 75.111452,98.073745 c -2.26659,-1.099832 -3.578918,-3.107129 -3.578918,-5.474213 0,-1.724829 0.533393,-2.979799 1.893735,-4.455595 l 1.00267,-1.087768 -1.819717,-5.475806 -1.819716,-5.475806 -0.863138,-0.133974 c -0.474724,-0.07368 -1.479354,-0.242585 -2.232509,-0.375335 -0.753154,-0.132747 -1.400142,-0.207695 -1.437754,-0.166548 -0.22207,0.242953 -3.669412,5.634504 -3.769566,5.895504 -0.06676,0.173969 0.226435,0.875737 0.651543,1.55948 0.697335,1.121592 0.772925,1.416986 0.772925,3.020492 0,2.037086 -0.421063,3.119543 -1.717944,4.416421 -3.141335,3.141335 -8.721222,1.68296 -9.996934,-2.612827 -0.431546,-1.453175 -0.431864,-1.876988 -0.0025,-3.322857 0.829574,-2.793475 2.968806,-4.351679 5.961366,-4.342222 0.916456,0.0029 1.756023,0.06073 1.865707,0.128517 0.109681,0.06779 0.934468,-1.0601 1.832857,-2.506414 2.468541,-3.974096 2.343274,-3.529262 1.395728,-4.956368 -1.610419,-2.425468 -1.931899,-4.526295 -1.101107,-7.195627 0.437061,-1.404284 0.440222,-1.50556 0.05855,-1.875626 -0.976946,-0.947229 -5.602775,-4.710016 -6.054422,-4.924845 -0.409346,-0.194707 -0.785941,-0.064 -2.101199,0.729267 -2.153885,1.29907 -3.074515,1.542286 -5.830979,1.540459 -2.814918,-0.0019 -4.176571,-0.410932 -6.37274,-1.914487 -0.837384,-0.573295 -1.643859,-0.995789 -1.792166,-0.938878 -0.354768,0.136135 -7.656452,5.628086 -10.303103,7.749463 l -2.074567,1.662832 0.191379,1.17096 c 0.368499,2.254679 0.229729,4.588958 -0.342995,5.769583 -0.799845,1.648817 -1.948112,2.843904 -3.58543,3.731625 -1.336211,0.724466 -1.66525,0.803241 -3.355043,0.803241 -1.574914,0 -2.084948,-0.103819 -3.19992,-0.65136 -4.858049,-2.385686 -6.044622,-8.304199 -2.460279,-12.271637 0.458627,-0.507647 1.445554,-1.232703 2.193169,-1.611239 1.189839,-0.602443 1.609815,-0.688246 3.368723,-0.688246 1.875778,0 2.127387,0.06069 3.783134,0.912457 l 1.773715,0.912459 5.938285,-4.567942 c 3.266056,-2.512365 6.07874,-4.73718 6.25041,-4.944028 0.262763,-0.316611 0.235042,-0.608876 -0.175298,-1.84803 -1.215061,-3.669288 -1.108136,-5.769853 0.461675,-9.069785 l 0.94059,-1.977234 -3.895546,-3.900609 -3.895545,-3.900609 -1.443197,0.601663 c -2.05089,0.855009 -4.442876,0.852314 -6.280521,-0.0071 -2.75489,-1.288363 -4.507788,-3.951943 -4.522241,-6.871691 -0.0045,-0.901639 0.07025,-2.008196 0.166031,-2.459016 l 0.174145,-0.819672 -2.821471,-1.827198 c -1.551809,-1.00496 -2.964496,-1.882083 -3.139306,-1.949164 -0.17481,-0.06708 -0.722389,0.138169 -1.216843,0.456111 -1.34946,0.867724 -2.551021,1.169949 -4.0948354,1.029961 C 6.2332749,23.35982 4.3951976,21.969671 3.4774579,19.773211 2.9687113,18.555609 3.0430321,16.333072 3.6345773,15.074614 c 0.6589484,-1.401853 2.3205201,-2.834352 3.7957482,-3.272447 1.4842199,-0.440766 1.880693,-0.438109 3.4522115,0.02314 1.62041,0.475595 3.470499,2.27507 3.933742,3.826123 0.318559,1.066614 0.398037,2.977086 0.155625,3.74086 -0.110633,0.348574 0.367617,0.743823 2.504214,2.069603 3.940507,2.445125 3.522921,2.327453 4.936456,1.391048 1.22899,-0.814153 3.095248,-1.56491 3.890104,-1.56491 0.23734,0 0.53649,-0.131733 0.66478,-0.29274 0.317159,-0.39804 1.50433,-7.263123 1.286122,-7.437278 -0.09567,-0.07634 -0.66455,-0.527617 -1.264168,-1.002813 -4.517396,-3.5800368 -2.044163,-10.679694 3.727426,-10.6999396 1.869345,-0.00656 3.259162,0.6249946 4.514963,2.0516577 2.061496,2.3419835 2.054457,5.5100714 -0.01749,7.8698849 -0.818277,0.931966 -2.702635,2.017108 -3.502724,2.017108 -0.297108,0 -0.566358,0.221968 -0.701995,0.578723 -0.182939,0.481169 -0.880197,3.996667 -1.28738,6.490839 -0.08939,0.547546 0.07103,0.747609 1.235066,1.54031 3.50097,2.38413 4.676054,6.230069 3.03093,9.919955 l -0.587052,1.316714 3.920178,3.915089 3.920178,3.915089 1.498679,-0.756719 c 1.798598,-0.90815 4.204993,-1.62726 5.445396,-1.62726 2.241661,0 5.560878,1.361281 7.516469,3.08266 0.561477,0.494232 1.160484,0.898605 1.331128,0.898605 0.302314,0 7.657857,-4.318869 11.24637,-6.603401 l 1.792441,-1.141108 -0.126787,-2.300913 c -0.117572,-2.13366 -0.08189,-2.398988 0.490932,-3.65019 0.339747,-0.742105 0.617721,-1.476679 0.617721,-1.632391 0,-0.155709 -1.371098,-1.629351 -3.046885,-3.274758 l -3.046885,-2.991648 -0.992928,0.14379 c -3.091356,0.447671 -3.811929,0.432987 -5.058051,-0.10308 -3.161394,-1.359995 -4.610017,-5.185168 -3.091157,-8.162379 2.340466,-4.5876919 8.653702,-4.5283029 10.919452,0.10272 0.653487,1.33568 0.672133,1.810789 0.199754,5.089256 l -0.161365,1.119927 3.109948,3.140719 3.109949,3.140718 1.19536,-0.630667 c 1.066202,-0.562526 1.45523,-0.632077 3.600436,-0.643686 2.782691,-0.01506 2.409752,0.271455 4.233012,-3.252067 1.118913,-2.162341 1.179355,-2.362672 0.847934,-2.810304 -1.552815,-2.097283 -1.971764,-4.892265 -1.026127,-6.845693 0.91371,-1.8874729 3.51397,-3.5894589 5.4839,-3.5894589 1.074293,0 2.878002,0.7324576 3.847716,1.5624972 3.474834,2.9743277 2.556218,8.4842237 -1.71181,10.2675207 -0.462635,0.1933 -1.548276,0.347968 -2.442459,0.347968 h -1.609651 l -1.442368,2.661558 c -0.793299,1.463857 -1.442365,2.766695 -1.442365,2.895198 0,0.128502 0.329956,0.643331 0.733237,1.144064 2.666517,3.310878 2.648526,7.302058 -0.0462,10.250522 -1.715386,1.876906 -3.317672,2.604843 -5.722164,2.599639 -2.008761,-0.0044 -2.869932,-0.318911 -4.960574,-1.811981 l -0.979306,-0.699389 -4.758398,2.873626 c -6.027984,3.640339 -7.874263,4.85647 -8.147244,5.366541 -0.143539,0.268206 -0.102019,0.791262 0.121864,1.535164 0.575665,1.912796 0.43841,4.616138 -0.349276,6.879234 -0.468539,1.346152 -0.623031,2.117281 -0.492649,2.459016 0.169972,0.445511 1.779274,1.886098 4.9527,4.433478 0.592893,0.475925 1.238822,0.865321 1.435401,0.865321 0.196578,0 0.966204,-0.278712 1.710278,-0.619361 2.752492,-1.260133 5.6062,-0.973311 7.944797,0.79852 2.044524,1.549028 3.171119,3.873824 3.171119,6.543796 0,1.179548 0.0077,1.191806 0.995316,1.589162 2.834612,1.140447 6.574331,2.460716 6.970087,2.460716 0.247068,0 0.808335,-0.315313 1.247262,-0.700697 2.492239,-2.188214 6.087024,-2.172565 8.363218,0.03641 2.417438,2.346043 2.521689,5.855553 0.250768,8.441986 -1.543487,1.757937 -4.510686,2.407223 -6.76289,1.479867 -1.982131,-0.816155 -3.803808,-3.636291 -3.803808,-5.888672 0,-0.436031 -0.03207,-0.79278 -0.07126,-0.79278 -0.03919,0 -1.693309,-0.632319 -3.675812,-1.405152 -1.982504,-0.772834 -3.821045,-1.405085 -4.085649,-1.405 -0.264602,8.2e-5 -1.164871,0.631065 -2.000597,1.402185 l -1.519501,1.402035 1.829901,5.506449 c 1.714527,5.159277 1.869391,5.515314 2.45627,5.647061 2.942093,0.660457 4.102847,1.265471 5.049969,2.632167 0.901778,1.301264 1.365853,2.966969 1.190588,4.273365 -0.290686,2.166695 -2.007899,4.309302 -4.032918,5.03196 -1.306532,0.466255 -3.28485,0.393258 -4.432349,-0.16355 z m 4.875143,-2.940541 c 0.829733,-0.829733 1.16367,-2.163874 0.901068,-3.59993 -0.326848,-1.787391 -1.959138,-2.754838 -4.105056,-2.433037 -2.284408,0.342566 -3.463106,3.070269 -2.29927,5.32088 0.586558,1.134281 1.628227,1.611543 3.310593,1.516817 1.274075,-0.07174 1.567278,-0.179344 2.192665,-0.80473 z M 60.57711,88.54737 c 0.718838,-0.718838 0.757785,-0.847588 0.757785,-2.505215 0,-1.645691 -0.04271,-1.790139 -0.733469,-2.480902 -1.173478,-1.173475 -3.869721,-1.356127 -4.994372,-0.338328 -1.663363,1.505321 -1.488063,4.649061 0.322679,5.786747 0.57226,0.359548 1.048686,0.436909 2.305457,0.374344 1.422986,-0.07084 1.661225,-0.15595 2.34192,-0.836646 z m 32.027527,-9.337054 c 1.070028,-0.632079 1.479164,-1.634871 1.356862,-3.325667 -0.09058,-1.252246 -0.209928,-1.56201 -0.847452,-2.199534 -0.665138,-0.665138 -0.912351,-0.751651 -2.385775,-0.834907 l -1.64375,-0.09288 -0.916278,0.916281 c -1.001862,1.001859 -1.344944,2.097897 -1.087029,3.472702 0.174797,0.931741 1.463296,2.358965 2.288415,2.534794 0.88533,0.188656 2.521824,-0.0495 3.235007,-0.470789 z m -69.337755,-3.437 c 1.501082,-0.99337 2.195094,-2.099379 2.309459,-3.680466 0.150692,-2.083295 -0.09745,-2.939337 -1.199797,-4.139077 -1.21648,-1.32396 -2.085944,-1.700846 -3.923793,-1.700846 -1.725795,0 -2.729975,0.432071 -3.827448,1.646841 -1.217355,1.347469 -1.60661,3.2446 -1.065491,5.192942 0.293499,1.056768 2.074939,2.901967 3.109501,3.220794 1.308979,0.403395 3.573835,0.137288 4.597569,-0.540188 z m 48.923277,-3.263562 c 1.420757,-0.940213 2.212122,-2.268082 2.330979,-3.911267 0.119244,-1.648534 -0.237122,-2.820386 -1.18652,-3.901691 -1.172714,-1.335648 -2.309639,-1.784119 -4.271766,-1.685037 -1.870733,0.09447 -2.787604,0.602016 -4.029978,2.230852 -0.886099,1.161736 -1.060841,3.742408 -0.347363,5.130059 1.046824,2.035981 2.645128,2.947393 4.989084,2.844958 1.222501,-0.05342 1.751616,-0.202317 2.515564,-0.707874 z m -20.1564,-14.767428 c 1.566218,-0.808586 2.896749,-2.134431 3.731077,-3.717935 0.598724,-1.136339 0.652026,-1.448103 0.652026,-3.813618 0,-2.340867 -0.05925,-2.696761 -0.648822,-3.897309 -0.356853,-0.726658 -1.110426,-1.746689 -1.674609,-2.266736 -5.050953,-4.655803 -13.108874,-1.931789 -14.192658,4.797888 -0.514995,3.197831 0.846321,6.516927 3.390967,8.267688 1.746977,1.201954 2.560312,1.412581 5.162593,1.336961 2.012594,-0.05849 2.515941,-0.1579 3.579426,-0.706939 z m 27.26504,-20.538673 c 1.331311,-0.369749 2.88406,-2.059398 3.23433,-3.519491 0.585663,-2.44131 -0.239522,-4.553324 -2.286138,-5.851249 -0.943324,-0.598236 -1.311026,-0.690056 -2.763455,-0.690056 -1.456426,0 -1.806253,0.08792 -2.677131,0.672803 -0.550979,0.370043 -1.304543,1.123607 -1.674585,1.674586 -0.580274,0.864009 -0.672804,1.225574 -0.672804,2.62904 0,1.864356 0.357834,2.794274 1.501963,3.903206 1.320972,1.280337 3.357859,1.731063 5.33782,1.181161 z M 29.8014,33.399684 c 0.532089,-0.35212 1.258148,-1.079513 1.613462,-1.616431 0.563798,-0.851956 0.646028,-1.204138 0.646028,-2.76686 0,-1.562721 -0.08223,-1.914904 -0.646028,-2.766859 -0.913773,-1.380806 -2.262565,-2.208753 -3.806862,-2.336819 -1.845314,-0.153027 -2.7254,0.08768 -3.85463,1.054259 -1.251566,1.071293 -1.867986,2.386012 -1.87469,3.998394 -0.0087,2.091028 1.019303,3.786306 2.864094,4.723201 1.436167,0.729368 3.716744,0.599131 5.058626,-0.288885 z M 11.712559,20.052841 c 0.727893,-0.794268 0.793296,-0.988563 0.793296,-2.356689 0,-1.920291 -0.619176,-2.939595 -2.065623,-3.400485 -2.1589962,-0.687934 -4.1811842,0.285456 -4.7155233,2.269841 -0.3904115,1.449877 -0.092105,2.579596 0.9602644,3.636624 l 0.9007208,0.904708 1.666785,-0.09418 c 1.5718741,-0.08882 1.7119571,-0.143473 2.4600801,-0.959817 z m 51.568514,-1.112709 c 1.616679,-0.985663 1.962969,-3.989025 0.621391,-5.38933 -1.256605,-1.311612 -3.654431,-1.461025 -5.01908,-0.312749 -1.734204,1.459237 -1.486297,4.577578 0.460878,5.797266 0.862485,0.54025 2.978485,0.489088 3.936811,-0.09519 z M 89.9327,16.774153 c 0.71923,-0.784815 0.793295,-0.998234 0.793295,-2.285857 0,-2.176645 -0.748765,-3.232279 -2.541522,-3.583116 -2.002033,-0.391793 -3.719625,0.557609 -4.257667,2.353434 -0.425335,1.419635 -0.122773,2.567736 0.962749,3.653258 l 0.916279,0.91628 1.666787,-0.09418 c 1.571873,-0.08882 1.711955,-0.143474 2.460079,-0.959817 z m -57.11311,-5.98852 c 0.810942,-0.439549 1.27033,-1.5652747 1.263014,-3.0949941 -0.01113,-2.3262944 -1.032965,-3.2644094 -3.555752,-3.2644094 -1.317976,0 -1.505995,0.065794 -2.21547,0.77527 -1.974602,1.9746012 -1.205326,5.4712695 1.318283,5.9921205 0.925719,0.19106 2.442663,-0.003 3.189925,-0.407987 z"
       id="path900"
       inkscape:connector-curvature="0"
       transform="matrix(0.26458333,0,0,0.26458333,0,270.54165)" />
    <path
       style="opacity:1;fill:#654c4f;fill-opacity:1;stroke:#000000;stroke-width:1.00100002;stroke-linejoin:round;stroke-miterlimit:4;stroke-dasharray:none;stroke-opacity:1"
       d="m 45.120252,57.258055 c -0.674494,-0.320391 -1.719257,-1.088621 -2.321696,-1.707177 -3.78085,-3.882004 -2.804905,-9.637328 2.080052,-12.266442 1.317608,-0.709144 1.65993,-0.790084 3.341533,-0.790084 1.681602,0 2.023924,0.08094 3.341532,0.790084 1.749904,0.941809 2.942193,2.195221 3.734589,3.926042 0.502279,1.097122 0.570486,1.534291 0.497651,3.189698 -0.135513,3.07999 -1.63013,5.418702 -4.301192,6.730321 -1.76069,0.864583 -4.697125,0.923362 -6.372469,0.127558 z"
       id="path902"
       inkscape:connector-curvature="0"
       transform="matrix(0.26458333,0,0,0.26458333,0,270.54165)" />
    <path
       style="opacity:1;fill:#9da9a0;fill-opacity:1;stroke:#000000;stroke-width:1.00100002;stroke-linejoin:round;stroke-miterlimit:4;stroke-dasharray:none;stroke-opacity:1"
       d="m 18.589055,75.327869 c -2.141634,-1.08321 -3.148704,-3.752413 -2.149211,-5.696408 0.932841,-1.814359 2.276297,-2.675957 4.172512,-2.675957 2.398366,0 4.305677,1.90833 4.305677,4.307977 0,1.917368 -0.912814,3.323028 -2.693209,4.147324 -1.252018,0.579665 -2.376439,0.554016 -3.635769,-0.08294 z"
       id="path904"
       inkscape:connector-curvature="0"
       transform="matrix(0.26458333,0,0,0.26458333,0,270.54165)" />
    <path
       style="opacity:1;fill:#b26e63;fill-opacity:1;stroke:#000000;stroke-width:1.00100002;stroke-linejoin:round;stroke-miterlimit:4;stroke-dasharray:none;stroke-opacity:1"
       d="m 56.828157,88.585325 c -0.912234,-0.450836 -1.69968,-1.642715 -1.698476,-2.570813 0.0013,-0.99309 0.824366,-2.174483 1.798551,-2.581524 1.192601,-0.4983 2.222894,-0.248749 3.100717,0.751035 0.579453,0.659961 0.720466,1.029821 0.720466,1.8897 0,0.903622 -0.123268,1.192402 -0.796253,1.865387 -0.43794,0.437939 -1.008946,0.796253 -1.268903,0.796253 -0.259957,0 -0.613001,0.05071 -0.784543,0.112698 -0.171542,0.06198 -0.653743,-0.05625 -1.071559,-0.262736 z"
       id="path906"
       inkscape:connector-curvature="0"
       transform="matrix(0.26458333,0,0,0.26458333,0,270.54165)" />
    <path
       style="opacity:1;fill:#9da9a0;fill-opacity:1;stroke:#000000;stroke-width:1.00100002;stroke-linejoin:round;stroke-miterlimit:4;stroke-dasharray:none;stroke-opacity:1"
       d="m 67.914218,72.332256 c -0.875059,-0.261758 -2.211397,-1.534176 -2.625984,-2.500378 -1.501985,-3.500401 2.117779,-7.256345 5.691836,-5.905972 2.296608,0.867719 3.525795,3.904701 2.438506,6.024876 -1.091315,2.128025 -3.241579,3.058342 -5.504358,2.381474 z"
       id="path908"
       inkscape:connector-curvature="0"
       transform="matrix(0.26458333,0,0,0.26458333,0,270.54165)" />
    <path
       style="opacity:1;fill:#b26e63;fill-opacity:1;stroke:#000000;stroke-width:1.00100002;stroke-linejoin:round;stroke-miterlimit:4;stroke-dasharray:none;stroke-opacity:1"
       d="m 75.759903,94.690001 c -1.031854,-0.868249 -1.362462,-2.131286 -0.843913,-3.224046 0.468899,-0.988133 1.640406,-1.794201 2.605798,-1.792948 0.952978,0.0012 2.136764,0.793304 2.582445,1.727908 1.229595,2.578487 -2.148949,5.136377 -4.34433,3.289086 z"
       id="path910"
       inkscape:connector-curvature="0"
       transform="matrix(0.26458333,0,0,0.26458333,0,270.54165)" />
    <path
       style="opacity:1;fill:#b26e63;fill-opacity:1;stroke:#000000;stroke-width:1.00100002;stroke-linejoin:round;stroke-miterlimit:4;stroke-dasharray:none;stroke-opacity:1"
       d="m 89.156569,78.687762 c -2.093532,-1.313291 -1.798015,-4.079981 0.542378,-5.077852 1.917972,-0.817764 4.256514,1.319075 3.604776,3.29386 -0.602059,1.824256 -2.66697,2.712525 -4.147154,1.783992 z"
       id="path912"
       inkscape:connector-curvature="0"
       transform="matrix(0.26458333,0,0,0.26458333,0,270.54165)" />
    <path
       style="opacity:1;fill:#9da9a0;fill-opacity:1;stroke:#000000;stroke-width:1.00100002;stroke-linejoin:round;stroke-miterlimit:4;stroke-dasharray:none;stroke-opacity:1"
       d="m 75.854801,36.419756 c -1.012707,-0.442 -2.392278,-2.070337 -2.689634,-3.174633 -0.470038,-1.745586 0.503449,-3.877077 2.228175,-4.878685 1.37712,-0.79974 3.4978,-0.65492 4.726754,0.322787 1.326767,1.055524 2.003746,2.507663 1.844098,3.95564 -0.321678,2.917545 -3.530723,4.900359 -6.109393,3.774891 z"
       id="path914"
       inkscape:connector-curvature="0"
       transform="matrix(0.26458333,0,0,0.26458333,0,270.54165)" />
    <path
       style="opacity:1;fill:#cec075;fill-opacity:1;stroke:#000000;stroke-width:1.00100002;stroke-linejoin:round;stroke-miterlimit:4;stroke-dasharray:none;stroke-opacity:1"
       d="m 60.106845,18.56394 c -0.912816,-0.453569 -1.699678,-1.645506 -1.698475,-2.572847 0.0019,-1.485359 1.494263,-2.899758 3.059543,-2.899758 1.109918,0 2.56019,1.516604 2.56019,2.677286 0,2.196609 -2.105507,3.697547 -3.921258,2.795319 z"
       id="path916"
       inkscape:connector-curvature="0"
       transform="matrix(0.26458333,0,0,0.26458333,0,270.54165)" />
    <path
       style="opacity:1;fill:#cec075;fill-opacity:1;stroke:#000000;stroke-width:1.00100002;stroke-linejoin:round;stroke-miterlimit:4;stroke-dasharray:none;stroke-opacity:1"
       d="m 86.159251,16.871063 c -1.624759,-1.003604 -2.109598,-2.363481 -1.341143,-3.761633 0.479984,-0.873298 1.709062,-1.657439 2.597902,-1.657439 1.472126,0 3.030176,1.886978 2.720862,3.295276 -0.223113,1.015828 -1.187718,2.042219 -2.177686,2.317175 -1.092082,0.303317 -0.975556,0.315836 -1.799935,-0.193379 z"
       id="path918"
       inkscape:connector-curvature="0"
       transform="matrix(0.26458333,0,0,0.26458333,0,270.54165)" />
    <path
       style="opacity:1;fill:#9da9a0;fill-opacity:1;stroke:#000000;stroke-width:1.00100002;stroke-linejoin:round;stroke-miterlimit:4;stroke-dasharray:none;stroke-opacity:1"
       d="m 25.527944,33.22285 c -1.483201,-0.443844 -2.936377,-2.53305 -2.946688,-4.236404 -0.01059,-1.749563 1.351489,-3.667109 2.98863,-4.207414 1.137647,-0.375458 2.933778,-0.149092 3.861625,0.486679 1.246915,0.854399 1.889794,2.026534 1.997699,3.642318 0.08785,1.315474 0.03901,1.486534 -0.701706,2.457675 -1.388356,1.820258 -3.181994,2.460898 -5.19956,1.857146 z"
       id="path920"
       inkscape:connector-curvature="0"
       transform="matrix(0.26458333,0,0,0.26458333,0,270.54165)" />
    <path
       style="opacity:1;fill:#cec075;fill-opacity:1;stroke:#000000;stroke-width:1.00100002;stroke-linejoin:round;stroke-miterlimit:4;stroke-dasharray:none;stroke-opacity:1"
       d="M 7.810411,20.059594 C 7.365973,19.76123 6.7932198,19.129818 6.5376261,18.656457 6.1058912,17.856881 6.0975808,17.724972 6.42053,16.797806 c 0.8774156,-2.519003 4.096379,-2.74167 5.225848,-0.36149 0.504451,1.06305 0.491842,1.522042 -0.06699,2.438547 -0.929823,1.524954 -2.5183796,2.024296 -3.768981,1.184731 z"
       id="path922"
       inkscape:connector-curvature="0"
       transform="matrix(0.26458333,0,0,0.26458333,0,270.54165)" />
    <path
       style="opacity:1;fill:#cec075;fill-opacity:1;stroke:#000000;stroke-width:1.00100002;stroke-linejoin:round;stroke-miterlimit:4;stroke-dasharray:none;stroke-opacity:1"
       d="m 29.424089,10.282296 c -2.103941,-1.282789 -2.096827,-3.6420233 0.01487,-4.9296035 0.910656,-0.5552623 1.37622,-0.571094 2.407207,-0.081858 0.926729,0.4397615 1.736977,1.6298115 1.736977,2.55118 0,0.9213683 -0.810248,2.1114185 -1.736977,2.5511795 -1.034356,0.490834 -1.496394,0.473494 -2.422072,-0.0909 z"
       id="path924"
       inkscape:connector-curvature="0"
       transform="matrix(0.26458333,0,0,0.26458333,0,270.54165)" />
  </g>
</svg>
